<svg width="128" height="33" viewBox="0 0 128 33" fill="none" xmlns="http://www.w3.org/2000/svg">
<g clip-path="url(#clip0_875_2334)">
<path fill-rule="evenodd" clip-rule="evenodd" d="M0 16.4004C0 7.56384 7.16344 0.400391 16 0.400391C24.8366 0.400391 32 7.56384 32 16.4004C32 25.2369 24.8366 32.4004 16 32.4004C7.16344 32.4004 0 25.2369 0 16.4004Z" fill="#E5F4F2"/>
<path fill-rule="evenodd" clip-rule="evenodd" d="M15.5208 13.4055L15.5544 13.9591L14.9948 13.8913C12.9579 13.6315 11.1784 12.7502 9.66756 11.27L8.92891 10.5356L8.73865 11.078C8.33575 12.2869 8.59316 13.5637 9.43253 14.4224C9.8802 14.8969 9.77948 14.9647 9.00725 14.6822C8.73865 14.5919 8.50363 14.5241 8.48124 14.558C8.4029 14.637 8.6715 15.6652 8.88414 16.072C9.17513 16.6369 9.76828 17.1906 10.4174 17.5182L10.9658 17.7781L10.3167 17.7894C9.68994 17.7894 9.66756 17.8007 9.73471 18.038C9.95854 18.7724 10.8427 19.552 11.8276 19.8909L12.5214 20.1282L11.9171 20.4898C11.0218 21.0095 9.96973 21.3033 8.91772 21.3259C8.41409 21.3372 8 21.3824 8 21.4163C8 21.5293 9.36538 22.162 10.16 22.4105C12.5438 23.145 15.3753 22.8286 17.5017 21.5744C19.0126 20.6818 20.5235 18.908 21.2286 17.1906C21.6091 16.2754 21.9896 14.6032 21.9896 13.8009C21.9896 13.2812 22.0232 13.2134 22.6499 12.592C23.0192 12.2304 23.3662 11.835 23.4333 11.722C23.5452 11.5073 23.534 11.5073 22.9633 11.6994C22.012 12.0383 21.8777 11.9932 22.3477 11.4847C22.6947 11.1232 23.1088 10.4678 23.1088 10.2757C23.1088 10.2419 22.9409 10.2983 22.7506 10.4C22.5492 10.513 22.1015 10.6825 21.7658 10.7842L21.1614 10.9763L20.613 10.6034C20.3108 10.4 19.8856 10.1741 19.6617 10.1063C19.0909 9.94809 18.218 9.97069 17.7032 10.1515C16.3042 10.6599 15.4201 11.9706 15.5208 13.4055Z" fill="#2D2D2D"/>
<path fill-rule="evenodd" clip-rule="evenodd" d="M48 16.4004C48 7.56384 55.1634 0.400391 64 0.400391C72.8366 0.400391 80 7.56384 80 16.4004C80 25.2369 72.8366 32.4004 64 32.4004C55.1634 32.4004 48 25.2369 48 16.4004Z" fill="#E5F4F2"/>
<path fill-rule="evenodd" clip-rule="evenodd" d="M72.5333 16.3887C72.5333 16.9658 72.4746 17.5421 72.3592 18.1038C72.2467 18.6522 72.08 19.1906 71.8617 19.7053C71.6483 20.2109 71.3837 20.6981 71.0745 21.1525C70.77 21.604 70.4191 22.0275 70.0337 22.4137C69.6474 22.7981 69.2224 23.148 68.7711 23.4539C68.3152 23.7609 67.8273 24.0251 67.3215 24.2394C66.806 24.4566 66.2664 24.6231 65.7184 24.7354C65.1559 24.8511 64.5776 24.9102 63.9996 24.9102C63.4213 24.9102 62.8429 24.8511 62.2812 24.7354C61.7324 24.6231 61.1928 24.4566 60.6778 24.2394C60.1719 24.0251 59.6836 23.7609 59.2277 23.4539C58.7764 23.148 58.3514 22.7981 57.966 22.4137C57.5801 22.0275 57.2293 21.604 56.9243 21.1525C56.6167 20.6981 56.3517 20.2109 56.1376 19.7053C55.9192 19.1906 55.7521 18.6522 55.6392 18.1038C55.525 17.5421 55.4667 16.9658 55.4667 16.3887C55.4667 15.8112 55.525 15.2336 55.6392 14.6731C55.7521 14.1247 55.9192 13.5855 56.1376 13.0716C56.3518 12.5657 56.6168 12.078 56.9243 11.6236C57.2293 11.1718 57.5802 10.749 57.966 10.3625C58.3515 9.97798 58.7765 9.62891 59.2278 9.32351C59.6836 9.01517 60.172 8.75099 60.6778 8.53626C61.1929 8.31861 61.7324 8.15178 62.2812 8.04029C62.8429 7.92545 63.4213 7.86719 63.9997 7.86719C64.5776 7.86719 65.1559 7.92545 65.7185 8.04029C66.2664 8.15181 66.806 8.31864 67.3215 8.53626C67.8273 8.75095 68.3153 9.01517 68.7711 9.32351C69.2224 9.62891 69.6475 9.97798 70.0337 10.3625C70.4191 10.749 70.77 11.1718 71.0746 11.6236C71.3837 12.078 71.6483 12.5657 71.8617 13.0716C72.08 13.5855 72.2467 14.1247 72.3592 14.6731C72.4746 15.2336 72.5333 15.8112 72.5333 16.3887ZM60.8903 9.80657C58.8581 10.7648 57.3413 12.6347 56.8684 14.8883C57.0605 14.8899 60.0973 14.9282 63.5962 13.9999C62.3349 11.7622 60.9874 9.93601 60.8903 9.80657ZM64.2 15.1205C60.4477 16.2422 56.8471 16.1615 56.718 16.1565C56.7159 16.2347 56.7121 16.3104 56.7121 16.3887C56.7121 18.2581 57.4184 19.9624 58.5793 21.2511C58.5768 21.2473 60.5711 17.7143 64.5038 16.4444C64.5988 16.4128 64.6955 16.3845 64.7913 16.3571C64.6084 15.9435 64.4087 15.5291 64.2 15.1205ZM68.8124 10.9271C67.5293 9.7974 65.8447 9.11215 63.9996 9.11215C63.4075 9.11215 62.8329 9.18372 62.2824 9.31603C62.3916 9.46251 63.7604 11.2758 65.0067 13.5609C67.7565 12.5315 68.7944 10.9537 68.8124 10.9271ZM65.288 17.5629C65.2718 17.5683 65.2556 17.5729 65.2397 17.5787C60.94 19.0755 59.5358 22.0919 59.5206 22.1249C60.7578 23.0856 62.3096 23.6652 63.9996 23.6652C65.0088 23.6652 65.9701 23.46 66.8448 23.0885C66.7368 22.4527 66.3135 20.2242 65.288 17.5629ZM68.0719 22.4236C69.7082 21.321 70.8703 19.5701 71.1945 17.542C71.0445 17.4938 69.0057 16.8492 66.6535 17.2258C67.6093 19.8489 67.9977 21.9851 68.0719 22.4236ZM65.5676 14.6453C65.7368 14.9923 65.9006 15.3455 66.0518 15.7005C66.1056 15.8278 66.1581 15.9526 66.2093 16.0774C68.7128 15.7629 71.1792 16.2921 71.2846 16.3137C71.2679 14.5887 70.65 13.0054 69.6275 11.7659C69.6137 11.7855 68.4449 13.4719 65.5676 14.6453Z" fill="#2D2D2D"/>
<path fill-rule="evenodd" clip-rule="evenodd" d="M96 16.4004C96 7.56384 103.163 0.400391 112 0.400391C120.837 0.400391 128 7.56384 128 16.4004C128 25.2369 120.837 32.4004 112 32.4004C103.163 32.4004 96 25.2369 96 16.4004Z" fill="#E5F4F2"/>
<path fill-rule="evenodd" clip-rule="evenodd" d="M112.001 7.86719C109.683 7.86719 109.392 7.87732 108.482 7.91874C107.574 7.96034 106.954 8.10417 106.411 8.31519C105.85 8.53315 105.374 8.82471 104.899 9.2992C104.425 9.77352 104.133 10.2496 103.915 10.8107C103.703 11.3534 103.559 11.9737 103.518 12.8818C103.477 13.792 103.467 14.0831 103.467 16.4006C103.467 18.7181 103.477 19.0081 103.518 19.9183C103.56 20.8268 103.704 21.4469 103.915 21.9895C104.133 22.5507 104.424 23.0268 104.899 23.5011C105.373 23.9758 105.849 24.2681 106.41 24.486C106.953 24.6971 107.573 24.8409 108.481 24.8825C109.392 24.9239 109.682 24.934 112 24.934C114.317 24.934 114.607 24.9239 115.518 24.8825C116.426 24.8409 117.047 24.6971 117.59 24.486C118.151 24.2681 118.626 23.9758 119.1 23.5011C119.575 23.0268 119.867 22.5507 120.085 21.9896C120.295 21.4469 120.439 20.8266 120.482 19.9185C120.523 19.0083 120.533 18.7181 120.533 16.4006C120.533 14.0831 120.523 13.7922 120.482 12.882C120.439 11.9735 120.295 11.3534 120.085 10.8109C119.867 10.2496 119.575 9.77352 119.1 9.2992C118.626 8.82453 118.151 8.53297 117.589 8.31519C117.045 8.10417 116.425 7.96034 115.516 7.91874C114.606 7.87732 114.316 7.86719 111.998 7.86719H112.001ZM111.235 9.40496C111.462 9.4046 111.716 9.40496 112.001 9.40496C114.279 9.40496 114.549 9.41314 115.449 9.45402C116.281 9.49207 116.733 9.63109 117.033 9.74789C117.432 9.90256 117.715 10.0875 118.014 10.3861C118.313 10.6848 118.498 10.9692 118.653 11.3675C118.769 11.6679 118.909 12.1195 118.946 12.9515C118.987 13.851 118.996 14.1213 118.996 16.3986C118.996 18.676 118.987 18.9462 118.946 19.8458C118.908 20.6778 118.769 21.1293 118.653 21.4298C118.498 21.828 118.313 22.1116 118.014 22.4101C117.715 22.7087 117.432 22.8936 117.033 23.0483C116.733 23.1656 116.281 23.3043 115.449 23.3423C114.549 23.3832 114.279 23.3921 112.001 23.3921C109.722 23.3921 109.452 23.3832 108.553 23.3423C107.721 23.3039 107.269 23.1649 106.968 23.0481C106.57 22.8935 106.285 22.7086 105.987 22.4099C105.688 22.1112 105.503 21.8275 105.348 21.4291C105.231 21.1286 105.092 20.6771 105.054 19.8451C105.013 18.9455 105.005 18.6753 105.005 16.3965C105.005 14.1177 105.013 13.8489 105.054 12.9493C105.092 12.1173 105.231 11.6658 105.348 11.365C105.503 10.9668 105.688 10.6823 105.987 10.3836C106.285 10.085 106.57 9.90007 106.968 9.74505C107.269 9.62772 107.721 9.48905 108.553 9.45082C109.34 9.41527 109.645 9.4046 111.235 9.40282V9.40496ZM116.556 10.8219C115.991 10.8219 115.532 11.28 115.532 11.8455C115.532 12.4109 115.991 12.8695 116.556 12.8695C117.121 12.8695 117.58 12.4109 117.58 11.8455C117.58 11.2802 117.121 10.8219 116.556 10.8219ZM112.001 12.0183C109.581 12.0183 107.619 13.9805 107.619 16.4006C107.619 18.8207 109.581 20.782 112.001 20.782C114.421 20.782 116.382 18.8207 116.382 16.4006C116.382 13.9805 114.421 12.0183 112.001 12.0183ZM112.001 13.5561C113.572 13.5561 114.845 14.8295 114.845 16.4006C114.845 17.9714 113.572 19.2451 112.001 19.2451C110.43 19.2451 109.156 17.9714 109.156 16.4006C109.156 14.8295 110.43 13.5561 112.001 13.5561Z" fill="#2D2D2D"/>
</g>
<defs>
<clipPath id="clip0_875_2334">
<rect width="128" height="32" fill="white" transform="translate(0 0.400391)"/>
</clipPath>
</defs>
</svg>
